<?xml version="1.0" encoding="UTF-8"?>
<!-- Generator: Adobe Illustrator 15.0.2, SVG Export Plug-In . SVG Version: 6.00 Build 0)  -->
<!DOCTYPE svg PUBLIC "-//W3C//DTD SVG 1.1//EN" "http://www.w3.org/Graphics/SVG/1.1/DTD/svg11.dtd">
<svg xmlns="http://www.w3.org/2000/svg" xmlns:xlink="http://www.w3.org/1999/xlink" version="1.1" id="Layer_1" x="0px" y="0px" width="512px" height="416.003px" viewBox="0 0 512 416.003" enable-background="new 0 0 512 416.003" xml:space="preserve">
<path d="M255.995,95.997c46.667,0,66.669,26.669,59.939,82.642c6.01,3.443,10.065,9.927,10.065,17.358  c0,9.088-6.079,16.766-14.378,19.203c-3.464,12.354-8.852,23.309-15.621,32.062v42.068c22.213,4.44,39.985,6.671,66.659,19.992  c26.659,13.342,35.56,25.559,53.343,43.342v63.339H95.997v-63.339c17.778-17.783,26.669-30,53.333-43.342  c26.669-13.321,44.446-15.552,66.664-19.992v-42.068c-6.77-8.753-12.157-19.707-15.626-32.071  c-8.304-2.428-14.373-10.105-14.373-19.193c0-7.432,4.051-13.915,10.065-17.358C189.331,122.666,209.328,95.997,255.995,95.997z   M133.334,297.323c-22.11,11.052-19.998,9.345-32.861,22.677H0v-63.334c17.777-17.782,26.669-29.999,53.332-43.341  c26.669-13.327,44.446-15.553,66.665-19.993v-42.067c-6.77-8.759-12.158-19.702-15.626-32.067  c-8.305-2.433-14.373-10.109-14.373-19.198c0-7.431,4.051-13.914,10.065-17.358C93.333,26.669,113.331,0,159.997,0  c43.771,0,64.079,35.461,60.877,84.556c-28.879,11.441-44.875,27.443-44.812,74.08c-6.015,3.449-10.065,9.933-10.065,17.363  c0,9.088,2.067,20.763,10.372,23.195c3.469,12.364,8.856,23.309,15.626,32.071v46.064  C169.777,281.771,159.997,284.001,133.334,297.323z M378.656,297.323c-26.664-13.322-36.443-15.553-58.656-19.993v-46.064  c6.77-8.763,12.157-19.707,15.621-32.071c8.3-2.433,10.372-14.107,10.372-23.195c0-7.431-4.046-13.914-10.066-17.363  c0.06-46.637-15.927-62.639-44.811-74.08C287.909,35.461,308.218,0,351.992,0c46.662,0,66.675,26.669,59.944,82.641  c6,3.444,10.065,9.928,10.065,17.358c0,9.089-6.078,16.766-14.388,19.193c-3.453,12.365-8.842,23.313-15.611,32.072v42.067  c22.203,4.44,39.986,6.666,66.649,19.993c26.664,13.342,35.565,25.559,53.348,43.341V320H411.522  C398.654,306.668,400.766,308.375,378.656,297.323z" fill="#000000"/>
</svg>
